<?xml version="1.0" standalone="no"?>
<!DOCTYPE svg PUBLIC "-//W3C//DTD SVG 20010904//EN"
 "http://www.w3.org/TR/2001/REC-SVG-20010904/DTD/svg10.dtd">
<svg version="1.0" xmlns="http://www.w3.org/2000/svg"
 width="256.000000pt" height="256.000000pt" viewBox="0 0 256.000000 256.000000"
 preserveAspectRatio="xMidYMid meet">
<metadata>
Created by potrace 1.14, written by Peter Selinger 2001-2017
</metadata>
<g transform="translate(0.000000,256.000000) scale(0.100000,-0.100000)"
fill="#000000" stroke="none">
<path d="M1987 2153 c-13 -12 -7 -68 8 -91 15 -21 14 -24 -30 -67 -54 -52
-143 -97 -241 -122 -104 -26 -398 -23 -614 6 -232 31 -381 48 -482 56 l-86 7
4 31 c6 38 -8 62 -30 54 -10 -4 -16 -18 -16 -40 0 -46 -9 -51 -36 -22 -13 14
-30 25 -38 25 -24 0 -29 -20 -10 -41 16 -18 16 -19 -7 -19 -33 0 -53 -15 -46
-34 5 -12 20 -16 57 -16 28 0 49 -3 47 -7 -11 -18 -38 -240 -46 -378 -11 -173
1 -400 28 -552 l18 -103 -44 -16 c-29 -12 -43 -23 -43 -35 0 -21 16 -24 55 -9
25 10 26 9 23 -23 -2 -26 1 -32 17 -32 12 0 22 9 26 25 7 24 7 24 14 -8 8 -36
30 -51 47 -34 7 7 7 20 -1 43 -6 18 -10 33 -9 34 2 1 46 -4 98 -11 405 -57
929 -56 1286 1 52 8 98 15 103 15 6 0 11 -17 13 -38 2 -29 7 -37 23 -37 14 0
21 8 25 29 4 26 6 27 19 13 7 -10 19 -17 27 -17 24 0 26 21 5 44 -26 27 -26
36 -3 36 10 0 27 6 38 14 15 12 17 17 6 27 -9 10 -21 11 -52 2 -47 -12 -45
-22 -24 123 23 155 23 528 0 689 -15 107 -49 293 -62 336 -3 13 4 16 37 15 50
-1 62 19 22 36 -15 7 -29 13 -31 14 -2 1 4 14 13 28 9 14 14 30 10 36 -11 18
-32 11 -51 -17 l-18 -28 -13 33 c-13 31 -23 39 -36 25z m66 -280 c47 -252 51
-291 51 -543 0 -229 -6 -307 -35 -456 l-10 -52 -77 -12 c-303 -46 -709 -63
-1004 -41 -214 17 -442 47 -446 60 -2 6 -12 11 -21 11 -15 0 -21 17 -34 98
-31 187 -41 389 -28 562 18 255 37 372 63 393 27 23 110 18 443 -23 450 -56
593 -61 766 -25 93 19 202 72 254 123 22 21 43 40 46 41 4 0 18 -61 32 -136z"/>
<path d="M1525 1570 c-4 -7 -3 -16 3 -22 14 -14 45 -2 40 15 -6 16 -34 21 -43
7z"/>
<path d="M903 1554 c-7 -19 11 -39 26 -30 16 10 13 33 -4 40 -9 3 -18 -1 -22
-10z"/>
<path d="M1570 1428 c-30 -10 -120 -35 -200 -55 -133 -33 -159 -36 -320 -39
-147 -3 -176 -6 -178 -19 -5 -20 37 -35 99 -35 44 0 49 -2 49 -23 0 -57 60
-218 92 -244 34 -28 155 -57 243 -57 168 -2 218 19 271 109 20 35 27 67 37
174 10 100 10 137 2 158 -20 48 -34 53 -95 31z m55 -93 l0 -50 -125 -6 c-105
-5 -136 -10 -195 -34 -76 -31 -123 -58 -170 -99 l-30 -26 -14 32 c-8 18 -16
53 -18 78 l-5 45 98 14 c98 13 356 70 404 90 45 18 55 10 55 -44z m-17 -159
c-3 -49 -10 -73 -32 -104 -39 -57 -70 -67 -211 -67 -102 0 -129 4 -177 23 -32
13 -58 29 -58 37 0 19 72 81 127 108 96 48 159 62 287 65 l68 2 -4 -64z"/>
</g>
</svg>
